<svg viewBox="0 0 198 166" fill="none" xmlns="http://www.w3.org/2000/svg">
<path d="M195 69.0937V145.5C195 154.889 187.389 162.5 178 162.5H20C10.6112 162.5 3 154.889 3 145.5V68.978C3 58.0298 9.61134 48.1654 19.7379 44.0042L88.0721 15.9249C94.6008 13.2421 101.921 13.2227 108.463 15.8707L178.129 44.0658C188.326 48.1927 195 58.0933 195 69.0937Z" fill="black" stroke="black" stroke-width="6"/>
<path d="M195.5 60.6789V127.5C195.5 142.964 182.964 155.5 167.5 155.5H30C14.536 155.5 2 142.964 2 127.5V60.5629C2 49.2297 8.8318 39.0142 19.3058 34.6856L87.3923 6.54787C94.193 3.73735 101.827 3.71699 108.642 6.4912L178.056 34.745C188.603 39.0381 195.5 49.2913 195.5 60.6789Z" fill="#FFCE67" stroke="black" stroke-width="4"/>
</svg>
