<svg width="285" height="174" viewBox="0 0 285 174" fill="none" xmlns="http://www.w3.org/2000/svg">
<path d="M25 8.5H260C272.979 8.5 283.5 19.0213 283.5 32V149C283.5 161.979 272.979 172.5 260 172.5H25C12.0213 172.5 1.5 161.979 1.5 149V32C1.5 19.0213 12.0213 8.5 25 8.5Z" fill="black" stroke="black" stroke-width="3"/>
<path d="M25 1.5H260C272.979 1.5 283.5 12.0213 283.5 25V139C283.5 151.979 272.979 162.5 260 162.5H25C12.0213 162.5 1.5 151.979 1.5 139V25C1.5 12.0213 12.0213 1.5 25 1.5Z" fill="#F5F5F5" stroke="black" stroke-width="3"/>
</svg>
