<svg width="37" height="36" viewBox="0 0 37 36" fill="none" xmlns="http://www.w3.org/2000/svg">
<path d="M0.999998 15.9476L0.999999 5C0.999999 2.79086 2.79086 1 5 1L32 1C34.2091 1 36 2.79086 36 5L36 15.9704C36 17.2427 35.3947 18.4392 34.3696 19.1929L20.9877 29.0328C19.5866 30.0631 17.6804 30.07 16.2719 29.0499L2.65376 19.1872C1.61501 18.4349 0.999997 17.2302 0.999998 15.9476Z" fill="black" stroke="black" stroke-width="3"/>
<path d="M0.999998 19.9476L0.999999 9C0.999999 6.79086 2.79086 5 5 5L32 5C34.2091 5 36 6.79086 36 9L36 19.9704C36 21.2427 35.3947 22.4392 34.3696 23.1929L20.9877 33.0328C19.5866 34.0631 17.6804 34.07 16.2719 33.0499L2.65376 23.1872C1.61501 22.4349 0.999997 21.2302 0.999998 19.9476Z" fill="#FD6687" stroke="black" stroke-width="3"/>
</svg>
